<svg width="21" height="16" viewBox="0 0 21 16" fill="none" xmlns="http://www.w3.org/2000/svg">
<path d="M20.8496 3.15039V14C20.8496 15.0238 20.0515 15.8496 19.0908 15.8496H3.01367V14.1504H19.2412V3.15039H20.8496ZM1.90918 0.150391H15.2725C16.2331 0.150391 17.0322 0.97619 17.0322 2V10C17.0322 11.0238 16.2331 11.8496 15.2725 11.8496H1.90918C0.948522 11.8496 0.150391 11.0238 0.150391 10V2C0.150391 0.97619 0.948522 0.150391 1.90918 0.150391ZM1.75879 10.1504H15.4229V1.84961H1.75879V10.1504ZM8.59082 3.15039C10.086 3.15039 11.3047 4.41619 11.3047 6C11.3047 7.58381 10.086 8.84961 8.59082 8.84961C7.09566 8.84956 5.87695 7.58378 5.87695 6C5.87695 4.41622 7.09566 3.15044 8.59082 3.15039Z" fill="black" stroke="white" stroke-width="0.3"/>
</svg>
