<svg width="17" height="13" viewBox="0 0 17 13" fill="none" xmlns="http://www.w3.org/2000/svg">
<path d="M7.24451 0.25C10.7874 0.250146 13.5606 2.54966 13.5609 5.28027C13.5609 6.43265 13.0751 7.50021 12.2426 8.35645L11.8304 8.78027H12.9369C13.0508 8.78031 13.1554 8.80765 13.2396 8.85254L13.3168 8.90332L16.4642 11.4346C16.5573 11.5107 16.5913 11.5968 16.5912 11.6699C16.591 11.725 16.5717 11.7882 16.5219 11.8486L16.4613 11.9072L15.5677 12.626L15.5668 12.627C15.3906 12.7701 15.1013 12.7891 14.8939 12.6807L14.8109 12.626L11.6635 10.0947C11.5728 10.0218 11.5356 9.93577 11.5355 9.8584V8.99219L11.1527 9.23242C10.0799 9.90692 8.72435 10.3115 7.24451 10.3115C3.70128 10.3115 0.927124 8.01117 0.927124 5.28027C0.927436 2.54958 3.70148 0.25 7.24451 0.25ZM7.24451 1.78125C4.92479 1.78125 2.95282 3.29947 2.95251 5.28027C2.95251 7.26406 4.92804 8.78027 7.24451 8.78027C9.56426 8.78013 11.5355 7.26121 11.5355 5.28027C11.5352 3.29681 9.56065 1.7814 7.24451 1.78125Z" fill="#0C0C0C" stroke="#F2F2F2" stroke-width="0.5"/>
</svg>
