<svg width="19" height="19" viewBox="0 0 19 19" fill="none" xmlns="http://www.w3.org/2000/svg">
<path d="M9.5 0.0996094C14.6969 0.0996094 18.9004 4.30309 18.9004 9.5C18.9004 14.6969 14.6969 18.9004 9.5 18.9004C4.30309 18.9004 0.0996094 14.6969 0.0996094 9.5C0.0996094 4.30309 4.30309 0.0996094 9.5 0.0996094ZM5.63477 10.7783L1.86133 12.3389L1.77148 12.376L1.80664 12.4678C2.64464 14.6246 4.36179 16.3417 6.51855 17.1797L6.60938 17.2148L6.64746 17.125L8.22168 13.3662L8.2627 13.2686L8.16309 13.2334C7.05132 12.8363 6.16366 11.9487 5.7666 10.8369L5.73145 10.7383L5.63477 10.7783ZM13.2188 10.8242C12.835 11.9356 11.9619 12.8228 10.8506 13.2197L10.752 13.2549L10.792 13.3516L12.3525 17.125L12.3896 17.2148L12.4814 17.1797C14.6382 16.3416 16.3416 14.6377 17.166 12.4668L17.2002 12.377L17.1113 12.3389L13.3525 10.7646L13.2539 10.7236L13.2188 10.8242ZM9.5 6.68555C7.95191 6.68555 6.68555 7.95191 6.68555 9.5C6.68555 11.0481 7.95191 12.3145 9.5 12.3145C11.0481 12.3145 12.3145 11.0481 12.3145 9.5C12.3145 7.95191 11.0481 6.68555 9.5 6.68555ZM6.53223 1.82031C4.37544 2.65833 2.65833 4.37544 1.82031 6.53223L1.78516 6.62305L1.875 6.66113L5.63477 8.22168L5.73145 8.26172L5.7666 8.16309C6.17724 7.03746 7.05116 6.16465 8.17578 5.76758L8.27637 5.73145L8.23535 5.63379L6.66113 1.875L6.62305 1.78516L6.53223 1.82031ZM12.3389 1.87598L10.792 5.64844L10.752 5.74512L10.8506 5.78027C11.9489 6.17732 12.8227 7.05109 13.2197 8.14941L13.2549 8.24805L13.3516 8.20801L17.125 6.64746L17.2148 6.61035L17.1797 6.51855C16.3415 4.36152 14.6242 2.65821 12.4678 1.82031L12.376 1.78516L12.3389 1.87598Z" fill="black" stroke="white" stroke-width="0.2"/>
</svg>
